<?xml version="1.0" standalone="no"?>
<!DOCTYPE svg PUBLIC "-//W3C//DTD SVG 20010904//EN"
 "http://www.w3.org/TR/2001/REC-SVG-20010904/DTD/svg10.dtd">
<svg version="1.0" xmlns="http://www.w3.org/2000/svg"
 width="512.000000pt" height="512.000000pt" viewBox="0 0 512.000000 512.000000"
 preserveAspectRatio="xMidYMid meet">
<metadata>
Created by potrace 1.11, written by Peter Selinger 2001-2013
</metadata>
<g transform="translate(0.000000,512.000000) scale(0.100000,-0.100000)"
fill="#000000" stroke="none">
<path d="M0 2560 l0 -2560 2560 0 2560 0 0 2560 0 2560 -2560 0 -2560 0 0
-2560z m4212 966 c79 -15 188 -53 248 -87 l38 -22 -28 -66 c-15 -36 -42 -100
-59 -142 l-32 -76 -77 38 c-90 44 -180 62 -241 48 -58 -13 -83 -31 -111 -81
-20 -35 -24 -57 -25 -118 0 -133 45 -195 235 -330 257 -181 343 -325 342 -575
-1 -321 -144 -497 -436 -535 -149 -20 -384 19 -483 80 l-33 20 0 171 c0 94 3
169 8 167 4 -2 54 -27 112 -56 280 -140 480 -87 480 127 0 128 -50 197 -256
352 -73 55 -154 123 -179 152 -121 138 -171 353 -129 555 60 289 308 439 626
378z m-2855 -48 c105 -38 159 -72 238 -152 111 -112 186 -273 219 -474 45
-270 19 -601 -62 -805 -73 -182 -191 -314 -343 -381 -124 -56 -141 -59 -476
-63 l-313 -5 0 957 0 956 333 -3 c328 -4 333 -4 404 -30z m1113 -348 l0 -380
235 0 235 0 0 380 0 380 180 0 180 0 0 -955 0 -955 -180 0 -180 0 0 420 0 420
-235 0 -235 0 0 -420 0 -420 -175 0 -175 0 0 955 0 955 175 0 175 0 0 -380z"/>
<path d="M980 2554 l0 -646 98 5 c121 6 158 17 221 67 39 31 59 58 90 122 54
110 71 200 78 400 13 376 -60 599 -222 674 -43 20 -66 24 -157 24 l-108 0 0
-646z"/>
</g>
</svg>
